<?xml version="1.0" encoding="utf-8"?>
<!-- Generator: Adobe Illustrator 27.2.0, SVG Export Plug-In . SVG Version: 6.00 Build 0)  -->
<svg version="1.1" id="Layer_1" xmlns="http://www.w3.org/2000/svg" xmlns:xlink="http://www.w3.org/1999/xlink" x="0px" y="0px"
	 viewBox="0 0 99.21 31.18" style="enable-background:new 0 0 99.21 31.18;" xml:space="preserve">
<style type="text/css">
	.st0{fill:#E7ECF3;}
</style>
<g>
	<polygon class="st0" points="68.61,11.09 69.61,11.09 69.61,12.09 69.61,13.09 69.61,14.09 69.61,15.09 69.61,16.09 69.61,17.09 
		69.61,18.09 69.61,19.09 69.61,20.09 69.61,21.09 69.61,22.09 69.61,23.09 70.61,23.09 73.61,23.09 73.61,22.09 70.61,22.09 
		70.61,21.09 73.61,21.09 73.61,20.09 70.61,20.09 70.61,19.09 73.61,19.09 73.61,18.09 70.61,18.09 70.61,17.09 73.61,17.09 
		73.61,16.09 70.61,16.09 70.61,15.09 73.61,15.09 73.61,14.09 70.61,14.09 70.61,13.09 73.61,13.09 73.61,12.09 70.61,12.09 
		70.61,11.09 73.61,11.09 73.61,10.09 68.61,10.09 	"/>
	<polygon class="st0" points="87.61,22.09 87.61,21.09 96.61,21.09 96.61,20.09 87.61,20.09 86.61,20.09 86.61,19.09 89.61,19.09 
		89.61,18.09 86.61,18.09 86.61,17.09 89.61,17.09 89.61,16.09 86.61,16.09 86.61,15.09 89.61,15.09 89.61,14.09 86.61,14.09 
		86.61,13.09 89.61,13.09 89.61,12.09 86.61,12.09 86.61,11.09 89.61,11.09 89.61,10.09 86.61,10.09 86.61,9.09 94.61,9.09 
		94.61,8.09 86.61,8.09 86.61,7.09 95.61,7.09 95.61,6.09 86.61,6.09 86.61,5.09 89.61,5.09 89.61,4.09 86.61,4.09 86.61,3.09 
		89.61,3.09 89.61,2.09 86.61,2.09 85.61,2.09 85.61,3.09 85.61,4.09 85.61,5.09 85.61,6.09 85.61,7.09 85.61,8.09 85.61,9.09 
		85.61,10.09 85.61,11.09 85.61,12.09 85.61,13.09 85.61,14.09 85.61,15.09 85.61,16.09 85.61,17.09 85.61,18.09 85.61,19.09 
		85.61,20.09 85.61,21.09 86.61,21.09 86.61,22.09 86.61,23.09 87.61,23.09 97.61,23.09 97.61,22.09 	"/>
	<polygon class="st0" points="14.61,8.09 14.61,9.09 14.61,10.09 14.61,11.09 14.61,12.09 14.61,13.09 14.61,14.09 14.61,15.09 
		14.61,16.09 14.61,17.09 14.61,18.09 14.61,19.09 14.61,20.09 14.61,21.09 14.61,22.09 14.61,23.09 14.61,24.09 14.61,25.09 
		14.61,26.09 14.61,27.09 14.61,28.09 14.61,29.09 15.61,29.09 18.61,29.09 18.61,28.09 15.61,28.09 15.61,27.09 18.61,27.09 
		18.61,26.09 15.61,26.09 15.61,25.09 18.61,25.09 18.61,24.09 15.61,24.09 15.61,23.09 18.61,23.09 18.61,22.09 15.61,22.09 
		15.61,21.09 18.61,21.09 18.61,20.09 15.61,20.09 15.61,19.09 18.61,19.09 18.61,18.09 15.61,18.09 15.61,17.09 18.61,17.09 
		18.61,16.09 15.61,16.09 15.61,15.09 18.61,15.09 18.61,14.09 15.61,14.09 15.61,13.09 18.61,13.09 18.61,12.09 15.61,12.09 
		15.61,11.09 18.61,11.09 18.61,10.09 15.61,10.09 15.61,9.09 18.61,9.09 18.61,8.09 15.61,8.09 	"/>
	<polygon class="st0" points="24.61,9.09 30.61,9.09 30.61,8.09 24.61,8.09 24.61,7.09 31.61,7.09 31.61,6.09 24.61,6.09 
		23.61,6.09 23.61,8.09 23.61,9.09 23.61,10.09 23.61,11.09 23.61,12.09 23.61,13.09 23.61,14.09 23.61,15.09 23.61,16.09 
		23.61,17.09 23.61,18.09 22.61,18.09 22.61,19.09 23.61,19.09 24.61,19.09 27.61,19.09 27.61,18.09 24.61,18.09 24.61,17.09 
		27.61,17.09 27.61,16.09 24.61,16.09 24.61,15.09 27.61,15.09 27.61,14.09 24.61,14.09 24.61,13.09 27.61,13.09 27.61,12.09 
		24.61,12.09 24.61,11.09 27.61,11.09 27.61,10.09 24.61,10.09 	"/>
	<polygon class="st0" points="20.61,20.09 20.61,22.09 20.61,23.09 26.61,23.09 26.61,22.09 21.61,22.09 21.61,21.09 27.61,21.09 
		27.61,20.09 21.61,20.09 	"/>
	<polygon class="st0" points="6.61,20.09 6.61,19.09 9.61,19.09 9.61,18.09 6.61,18.09 6.61,17.09 9.61,17.09 9.61,16.09 
		6.61,16.09 6.61,15.09 9.61,15.09 9.61,14.09 6.61,14.09 6.61,13.09 9.61,13.09 9.61,12.09 6.61,12.09 6.61,11.09 9.61,11.09 
		9.61,10.09 6.61,10.09 6.61,9.09 9.61,9.09 9.61,8.09 6.61,8.09 5.61,8.09 3.61,8.09 3.61,7.09 9.61,7.09 9.61,6.09 3.61,6.09 
		2.61,6.09 1.61,6.09 1.61,7.09 2.61,7.09 2.61,8.09 2.61,9.09 3.61,9.09 5.61,9.09 5.61,10.09 5.61,11.09 5.61,12.09 5.61,13.09 
		5.61,14.09 5.61,15.09 5.61,16.09 5.61,17.09 5.61,18.09 5.61,19.09 5.61,20.09 5.61,21.09 6.61,21.09 6.61,22.09 6.61,23.09 
		7.61,23.09 12.61,23.09 12.61,22.09 7.61,22.09 7.61,21.09 12.61,21.09 12.61,20.09 7.61,20.09 	"/>
	<polygon class="st0" points="31.61,20.09 31.61,22.09 30.61,22.09 30.61,23.09 31.61,23.09 32.61,23.09 37.61,23.09 37.61,22.09 
		32.61,22.09 32.61,21.09 38.61,21.09 38.61,20.09 32.61,20.09 	"/>
	<polygon class="st0" points="42.61,20.09 42.61,19.09 45.61,19.09 45.61,18.09 42.61,18.09 42.61,17.09 45.61,17.09 45.61,16.09 
		42.61,16.09 42.61,15.09 45.61,15.09 45.61,14.09 42.61,14.09 42.61,13.09 45.61,13.09 45.61,12.09 42.61,12.09 42.61,11.09 
		45.61,11.09 45.61,10.09 42.61,10.09 42.61,9.09 45.61,9.09 45.61,8.09 39.61,8.09 39.61,7.09 44.61,7.09 44.61,6.09 37.61,6.09 
		37.61,7.09 38.61,7.09 38.61,8.09 38.61,9.09 39.61,9.09 41.61,9.09 41.61,10.09 41.61,11.09 41.61,12.09 41.61,13.09 41.61,14.09 
		41.61,15.09 41.61,16.09 41.61,17.09 41.61,18.09 41.61,19.09 41.61,20.09 41.61,21.09 42.61,21.09 42.61,22.09 42.61,23.09 
		43.61,23.09 54.61,23.09 54.61,22.09 43.61,22.09 43.61,21.09 55.61,21.09 55.61,20.09 43.61,20.09 	"/>
	<polygon class="st0" points="51.61,6.09 51.61,7.09 51.61,8.09 51.61,9.09 51.61,10.09 51.61,11.09 51.61,12.09 51.61,13.09 
		51.61,14.09 51.61,15.09 51.61,16.09 51.61,17.09 51.61,18.09 50.61,18.09 50.61,19.09 51.61,19.09 52.61,19.09 55.61,19.09 
		55.61,18.09 52.61,18.09 52.61,17.09 55.61,17.09 55.61,16.09 52.61,16.09 52.61,15.09 55.61,15.09 55.61,14.09 52.61,14.09 
		52.61,13.09 55.61,13.09 55.61,12.09 52.61,12.09 52.61,11.09 55.61,11.09 55.61,10.09 52.61,10.09 52.61,9.09 55.61,9.09 
		55.61,8.09 52.61,8.09 52.61,7.09 55.61,7.09 55.61,6.09 52.61,6.09 	"/>
	<polygon class="st0" points="61.61,7.09 72.61,7.09 72.61,6.09 61.61,6.09 60.61,6.09 60.61,7.09 60.61,8.09 59.61,8.09 
		59.61,9.09 59.61,10.09 59.61,11.09 59.61,12.09 59.61,13.09 59.61,14.09 59.61,15.09 59.61,16.09 59.61,17.09 59.61,18.09 
		59.61,19.09 59.61,20.09 59.61,21.09 59.61,22.09 59.61,23.09 60.61,23.09 63.61,23.09 63.61,22.09 60.61,22.09 60.61,21.09 
		63.61,21.09 63.61,20.09 60.61,20.09 60.61,19.09 63.61,19.09 63.61,18.09 60.61,18.09 60.61,17.09 63.61,17.09 63.61,16.09 
		60.61,16.09 60.61,15.09 63.61,15.09 63.61,14.09 60.61,14.09 60.61,13.09 63.61,13.09 63.61,12.09 60.61,12.09 60.61,11.09 
		63.61,11.09 63.61,10.09 60.61,10.09 60.61,9.09 61.61,9.09 73.61,9.09 73.61,8.09 61.61,8.09 	"/>
	<polygon class="st0" points="77.61,8.09 77.61,9.09 77.61,10.09 77.61,11.09 77.61,12.09 77.61,13.09 77.61,14.09 77.61,15.09 
		77.61,16.09 77.61,17.09 77.61,18.09 77.61,19.09 77.61,20.09 77.61,21.09 77.61,22.09 77.61,23.09 78.61,23.09 81.61,23.09 
		81.61,22.09 78.61,22.09 78.61,21.09 81.61,21.09 81.61,20.09 78.61,20.09 78.61,19.09 81.61,19.09 81.61,18.09 78.61,18.09 
		78.61,17.09 81.61,17.09 81.61,16.09 78.61,16.09 78.61,15.09 81.61,15.09 81.61,14.09 78.61,14.09 78.61,13.09 81.61,13.09 
		81.61,12.09 78.61,12.09 78.61,11.09 81.61,11.09 81.61,10.09 78.61,10.09 78.61,9.09 81.61,9.09 81.61,8.09 78.61,8.09 	"/>
	<polygon class="st0" points="77.61,2.09 77.61,3.09 77.61,4.09 77.61,5.09 78.61,5.09 81.61,5.09 81.61,4.09 78.61,4.09 
		78.61,3.09 81.61,3.09 81.61,2.09 78.61,2.09 	"/>
</g>
</svg>
